<svg width="540" height="540" viewBox="0 0 540 540" fill="none" xmlns="http://www.w3.org/2000/svg">
<path d="M278.733 321.247C281.678 316.146 279.93 309.622 274.829 306.676C269.727 303.731 263.203 305.479 260.258 310.581C257.312 315.682 259.06 322.206 264.162 325.152C269.264 328.097 275.787 326.349 278.733 321.247ZM178.238 263.226C181.183 258.124 179.435 251.601 174.333 248.655C169.231 245.71 162.708 247.458 159.762 252.56C156.817 257.661 158.565 264.185 163.667 267.13C168.768 270.076 175.292 268.328 178.238 263.226ZM270.495 314.182L170 256.161L168 259.625L268.495 317.646L270.495 314.182Z" fill="#23BAE9"/>
<path d="M273 317L273 433.042" stroke="#38B2AC" stroke-width="2"/>
<path d="M267 316L267 432.042" stroke="#23BAE9" stroke-width="2"/>
<path d="M271 319L371 262" stroke="#38B2AC" stroke-width="2"/>
<path d="M269 312L369 255" stroke="#23BAE9" stroke-width="2"/>
<path d="M270 125L370 259" stroke="#38B2AC" stroke-width="4"/>
<path d="M270 331.919C278.837 331.919 286 324.755 286 315.919C286 307.082 278.837 299.919 270 299.919C261.163 299.919 254 307.082 254 315.919C254 324.755 261.163 331.919 270 331.919ZM270 141C278.837 141 286 133.837 286 125C286 116.163 278.837 109 270 109C261.163 109 254 116.163 254 125C254 133.837 261.163 141 270 141ZM273 315.919L273 125L267 125L267 315.919L273 315.919Z" fill="#38B2AC"/>
<path d="M256.103 308.07C251.724 315.745 254.395 325.517 262.07 329.897C269.745 334.276 279.517 331.605 283.897 323.93C288.276 316.255 285.605 306.483 277.93 302.103C270.255 297.724 260.483 300.395 256.103 308.07ZM422.444 402.989C418.064 410.664 420.736 420.436 428.411 424.816C436.086 429.195 445.858 426.524 450.237 418.849C454.617 411.174 451.945 401.402 444.27 397.022C436.595 392.643 426.823 395.314 422.444 402.989ZM268.513 318.606L434.854 413.525L437.827 408.313L271.487 313.394L268.513 318.606Z" fill="white"/>
<path d="M283.89 308.058C279.503 300.387 269.729 297.724 262.058 302.11C254.387 306.497 251.724 316.271 256.11 323.942C260.497 331.613 270.271 334.276 277.942 329.89C285.613 325.503 288.276 315.729 283.89 308.058ZM117.89 402.977C113.503 395.306 103.729 392.643 96.0579 397.029C88.3868 401.415 85.724 411.19 90.1103 418.861C94.4966 426.532 104.271 429.195 111.942 424.809C119.613 420.422 122.276 410.648 117.89 402.977ZM268.511 313.396L102.511 408.315L105.489 413.523L271.489 318.604L268.511 313.396Z" fill="white"/>
<circle cx="270" cy="433" r="11" fill="white"/>
<circle cx="370" cy="259" r="8" fill="white"/>
<circle cx="270" cy="125" r="13" fill="white"/>
</svg>
